<svg xmlns="http://www.w3.org/2000/svg" width="33.76" height="29.25" viewBox="0 0 33.76 29.25">
  <path id="airplane-sharp" d="M28.668,14.625c-.191,0-1.015.006-1.313.022l-4.062.107L13.926,3.375H9.51l5.245,11.574-6.842.1L4.8,11.25H1.135l1.449,6.622c.011.038.023.075.037.112a.018.018,0,0,1,0,.011,1.084,1.084,0,0,0-.037.111L1.115,24.75H4.756l3.2-3.867,6.8.153L9.509,32.625h4.43l9.352-11.373,4.062.108c.3.016,1.125.022,1.312.022a10.471,10.471,0,0,0,4.163-.7A2.919,2.919,0,0,0,34.875,18C34.875,15.886,32.555,14.625,28.668,14.625ZM23.655,20.805Z" transform="translate(-1.115 -3.375)" fill="#2680eb"/>
</svg>
