<svg xmlns="http://www.w3.org/2000/svg" width="24.75" height="27" viewBox="0 0 24.75 27">
  <path id="android-bus" d="M5.625,24.75c0,1.35.975,1.725,1.875,2.55V30A1.5,1.5,0,0,0,9,31.5h1.5A1.5,1.5,0,0,0,12,30V28.5H24V30a1.5,1.5,0,0,0,1.5,1.5H27A1.5,1.5,0,0,0,28.5,30V27.3c.9-.825,1.875-1.275,1.875-2.55V10.43C30.375,5.18,24.6,4.5,18,4.5S5.625,5.18,5.625,10.43Zm5.625,1.124a2.25,2.25,0,1,1,2.25-2.25A2.21,2.21,0,0,1,11.25,25.874Zm13.5,0A2.25,2.25,0,1,1,27,23.624,2.21,2.21,0,0,1,24.75,25.874ZM27,17.25H9V9.75H27Z" transform="translate(-5.625 -4.5)" fill="#2680eb"/>
</svg>
