<svg id="android-boat" xmlns="http://www.w3.org/2000/svg" width="31.5" height="30.376" viewBox="0 0 31.5 30.376">
  <path id="パス_23" data-name="パス 23" d="M5.924,29.039H6a8.319,8.319,0,0,0,6-2.988,8.341,8.341,0,0,0,6,3.007,8.34,8.34,0,0,0,6-3.01,8.322,8.322,0,0,0,6,2.991h.075l3.6-9.758a1.655,1.655,0,0,0-.075-1.194,1.467,1.467,0,0,0-.884-.747l-2.688-.878v-6.9a3.055,3.055,0,0,0-3.031-3.022h-4.5L21.368,2.812H14.62L13.495,6.539H9A3.045,3.045,0,0,0,5.977,9.561v6.9L3.3,17.343a1.491,1.491,0,0,0-.894.75,1.606,1.606,0,0,0-.072,1.187ZM9,9.563H27v5.925l-9-2.925L9,15.488Z" transform="translate(-2.251 -2.812)" fill="#2680eb"/>
  <path id="パス_24" data-name="パス 24" d="M23.993,28.688a10.362,10.362,0,0,1-12,0s-4.053,4.5-7.5,4.5H6a13.265,13.265,0,0,0,6-1.8,13.031,13.031,0,0,0,12,0,13.267,13.267,0,0,0,6,1.8h1.5C28.141,33.188,23.993,28.688,23.993,28.688Z" transform="translate(-2.251 -2.812)" fill="#2680eb"/>
</svg>
