<svg xmlns="http://www.w3.org/2000/svg" width="31.8" height="26.5" viewBox="0 0 31.8 26.5">
  <path id="android-car" d="M32.591,8.517A2.573,2.573,0,0,0,30.117,6.75H10.683A2.575,2.575,0,0,0,8.209,8.517L4.5,18.233v13.25A1.772,1.772,0,0,0,6.267,33.25H8.033A1.772,1.772,0,0,0,9.8,31.483V30.6H31v.883a1.772,1.772,0,0,0,1.767,1.767h1.767A1.772,1.772,0,0,0,36.3,31.483V18.233ZM10.683,25.3a2.65,2.65,0,1,1,2.65-2.65A2.6,2.6,0,0,1,10.683,25.3Zm19.433,0a2.65,2.65,0,1,1,2.65-2.65A2.6,2.6,0,0,1,30.117,25.3ZM8.033,16.467,10.683,9.4H30.117l2.65,7.067Z" transform="translate(-4.5 -6.75)" fill="#2680eb"/>
</svg>
