<svg xmlns="http://www.w3.org/2000/svg" width="25.794" height="32.242" viewBox="0 0 25.794 32.242">
  <path id="cart" d="M12.448,25.57h12.9a1.612,1.612,0,0,1,0,3.224H10.836a1.612,1.612,0,0,1-1.612-1.612V6.224H7.612A1.612,1.612,0,0,1,7.612,3h3.224a1.612,1.612,0,0,1,1.612,1.612V7.838l.118,0H28.452a3.284,3.284,0,0,1,3.341,3.224,3.141,3.141,0,0,1-.081.7l-1.856,8.061a3.316,3.316,0,0,1-3.263,2.525H12.567l-.118,0Zm-.806,9.673a2.418,2.418,0,1,1,2.418-2.418A2.418,2.418,0,0,1,11.642,35.242Zm14.509,0a2.418,2.418,0,1,1,2.418-2.418A2.418,2.418,0,0,1,26.151,35.242Zm-13.7-24.182v8.061H26.684l1.885-8.061Z" transform="translate(-6 -3)" fill-rule="evenodd"/>
</svg>
