<svg xmlns="http://www.w3.org/2000/svg" width="45.081" height="32.242" viewBox="0 0 45.081 32.242">
  <g id="グループ_4" data-name="グループ 4" transform="translate(-89 -868)">
    <path id="list-bullet" d="M17.039,6.291H34.951a1.791,1.791,0,0,1,0,3.582H17.039a1.791,1.791,0,0,1,0-3.582Zm0,12.539H34.951a1.791,1.791,0,0,1,0,3.582H17.039a1.791,1.791,0,0,1,0-3.582Zm0,12.539H34.951a1.791,1.791,0,0,1,0,3.582H17.039a1.791,1.791,0,0,1,0-3.582Zm-8.956-19.7a3.582,3.582,0,1,1,3.582-3.582A3.582,3.582,0,0,1,8.082,11.665Zm0,12.539a3.582,3.582,0,1,1,3.582-3.582A3.582,3.582,0,0,1,8.082,24.2Zm0,12.539a3.582,3.582,0,1,1,3.582-3.582A3.582,3.582,0,0,1,8.082,36.742Z" transform="translate(84.5 863.5)" fill-rule="evenodd"/>
    <g id="グループ_3" data-name="グループ 3" transform="translate(108.404 874.567)">
      <circle id="楕円形_3" data-name="楕円形 3" cx="8.359" cy="8.359" r="8.359" transform="translate(1.791 1.791)" fill="#fff"/>
      <path id="search" d="M21.389,19.558,28.3,26.465A1.3,1.3,0,1,1,26.463,28.3l-6.906-6.906a10.27,10.27,0,1,1,1.831-1.831ZM13.27,20.972a7.7,7.7,0,1,0-7.7-7.7A7.7,7.7,0,0,0,13.27,20.972Z" transform="translate(-2.998 -3)" fill-rule="evenodd"/>
    </g>
  </g>
</svg>
