<svg xmlns="http://www.w3.org/2000/svg" width="262" height="173.407" viewBox="0 0 262 173.407">
  <g id="グループ_56" data-name="グループ 56" transform="translate(-29.335 -232.437)">
    <g id="グループ_53" data-name="グループ 53" transform="translate(29.335 263.08)">
      <path id="パス_25" data-name="パス 25" d="M80.9,273.018c2.434,0,3.907,1.344,3.907,3.843,0,3.267-2.242,3.459-7.494,3.907-4.356.384-10.827.961-14.285,2.754-4.228,2.179-6.855,5.958-6.855,9.674,0,8.9,11.531,9.738,14.414,9.928,3.781.258,5.574.384,5.574,3.459,0,3.845-3.268,3.909-4.868,3.909-3.588,0-22.486-1.6-22.486-16.848a13.923,13.923,0,0,1,3.587-9.738c-2.5.448-13.453,2.628-15.695,3.011a21.8,21.8,0,0,1-3.395.512c-.769,0-3.971,0-3.971-3.651,0-3.075,2.434-3.459,6.085-4.035,7.88-1.345,16.207-2.69,26.329-14.414a57.306,57.306,0,0,0,5.637-7.816c.769-1.153,1.537-2.114,3.139-2.114a3.622,3.622,0,0,1,3.587,3.524c0,2.178-3.2,6.021-5,8.2a52.278,52.278,0,0,1-9.288,8.9C63.158,275.58,79.558,273.018,80.9,273.018Z" transform="translate(-29.335 -255.4)" fill="#0092e5"/>
      <path id="パス_26" data-name="パス 26" d="M43.953,272.553c-1.986,0-2.562-1.025-4.035-3.652-.384-.641-1.154-1.986-4.741-7.43a4.231,4.231,0,0,1-.9-2.434,3.614,3.614,0,0,1,3.523-3.4c1.923,0,3.012,1.539,4.613,3.973,4.42,6.534,5.06,7.943,5.06,9.224A3.414,3.414,0,0,1,43.953,272.553Z" transform="translate(-27.681 -255.32)" fill="#0092e5"/>
    </g>
    <path id="パス_27" data-name="パス 27" d="M97.833,264.751a118.806,118.806,0,0,1-16.72.9c-4.164,0-6.726,0-6.726-3.843,0-3.651,2.818-3.651,3.587-3.651,1.794,0,9.674.192,11.275.192,3.779,0,12.364-.384,12.94-.384.7,0,3.395-.256,3.971-.256A3.5,3.5,0,0,1,110,261.42c0,1.858-.9,2.946-2.434,4.035l-13.709,9.994a29.455,29.455,0,0,1,5.381-.512c8.457,0,18.514,4.164,18.514,15.5,0,12.492-10.442,17.746-26.457,17.746-7.88,0-10.378-.9-10.378-4.356a3.314,3.314,0,0,1,3.139-3.652,23.429,23.429,0,0,1,2.884.384,42.955,42.955,0,0,0,6.085.386,29.649,29.649,0,0,0,10.25-1.411,9.824,9.824,0,0,0,6.982-9.224c0-8.392-10.186-9.033-13.581-9.033-9.416,0-15.374,4.035-22.8,9.1a5.912,5.912,0,0,1-3.267,1.345,3.607,3.607,0,0,1-3.4-3.651c0-1.539.77-2.115,3.332-3.909Z" transform="translate(12.669 8.451)" fill="#0092e5"/>
    <g id="グループ_54" data-name="グループ 54" transform="translate(127.28 262.824)">
      <path id="パス_28" data-name="パス 28" d="M112.6,304.406c-1.345,3.652-2.37,5.574-5.06,5.574a3.161,3.161,0,0,1-3.395-3.395c0-1.154.192-1.537,1.858-5.126a162.747,162.747,0,0,0,8.519-27.8c-2.434.192-4.42.384-6.469.384-1.986,0-5.317,0-5.317-3.395,0-3.587,3.075-3.651,4.868-3.715,5.957-.192,6.534-.256,8.136-.384.128-1.345.641-7.688.833-8.521a3.026,3.026,0,0,1,3.2-2.818c2.5,0,3.779,1.345,3.779,3.843a63.141,63.141,0,0,1-.7,6.727c1.922-.256,5.318-.7,5.829-.7,2.628,0,3.523,1.473,3.523,3.395,0,2.948-1.408,3.588-10.633,4.548A211.617,211.617,0,0,1,112.6,304.406Z" transform="translate(-102.731 -255.208)" fill="#0092e5"/>
      <path id="パス_29" data-name="パス 29" d="M125.972,286.463c0,3.779.576,7.494,13,7.494,1.153,0,3.267-.063,5.958-.32,2.306-.192,2.5-.256,3.011-.256a2.974,2.974,0,0,1,3.2,3.2c0,3.331-2.5,4.1-10.825,4.1-11.083,0-21.653-1.345-21.653-13.581,0-5.252,2.5-5.252,3.971-5.252C125.972,281.851,125.972,284.926,125.972,286.463Z" transform="translate(-97.401 -246.297)" fill="#0092e5"/>
      <path id="パス_30" data-name="パス 30" d="M144.767,274.273c-1.473,0-8.008-.256-9.289-.256-1.025,0-5.573.256-6.534.256-1.153,0-3.651-.32-3.651-3.524a3.294,3.294,0,0,1,1.986-3.2c1.473-.577,7.751-.577,9.738-.577,11.722,0,11.722,1.154,11.722,4.357C148.738,274.273,145.792,274.273,144.767,274.273Z" transform="translate(-95.185 -251.274)" fill="#0092e5"/>
    </g>
    <g id="グループ_55" data-name="グループ 55" transform="translate(181.059 260.518)">
      <path id="パス_31" data-name="パス 31" d="M189.667,286.806c0,15.5-11.083,22.613-21.973,22.613-13.709,0-21.4-10.827-21.4-21.653,0-13.387,10.058-20.755,12.94-22.869a58.1,58.1,0,0,1-12.94,2.946c-2.306,0-3.267-1.922-3.267-3.651,0-3.075,1.6-3.267,6.662-3.715a99.573,99.573,0,0,0,10.442-1.794c2.562-.512,5.06-1.09,5.829-1.09a3.508,3.508,0,0,1,3.331,3.781c0,2.306-.961,3.011-3.267,4.612-5.317,3.843-12.492,12.044-12.492,21.845,0,7.879,4.869,14.734,13.773,14.734,5.317,0,15.5-3.14,15.5-16.591a35.961,35.961,0,0,0-6.149-20.436c-1.537-2.434-2.434-3.843-2.434-5.446a3.525,3.525,0,0,1,3.651-3.587c2.178,0,2.5.448,5.381,4.677,3.331,4.868,7.56,7.3,12.108,9.288,2.562,1.154,3.779,1.665,3.779,3.779,0,1.154-.833,4.1-3.651,4.1-1.345,0-2.306-.384-8.969-5.574A33.593,33.593,0,0,1,189.667,286.806Z" transform="translate(-143.031 -252.469)" fill="#0092e5"/>
      <path id="パス_32" data-name="パス 32" d="M184.257,263.184c0,1.281-.769,1.729-1.537,1.729-.961,0-1.217,0-5.51-6.213a3.39,3.39,0,0,1-.767-1.859,1.313,1.313,0,0,1,1.345-1.345C179.581,255.5,184.257,261.262,184.257,263.184Z" transform="translate(-131.856 -252.806)" fill="#0092e5"/>
      <path id="パス_33" data-name="パス 33" d="M181.035,253.48c1.922,0,7.047,5.124,7.047,7.175a1.53,1.53,0,0,1-1.539,1.729c-1.089,0-1.345-.32-3.459-3.2-.384-.578-2.626-3.012-3.011-3.587a1.228,1.228,0,0,1-.256-1.218A1.377,1.377,0,0,1,181.035,253.48Z" transform="translate(-130.748 -253.48)" fill="#0092e5"/>
    </g>
    <path id="パス_34" data-name="パス 34" d="M203.508,241.464s44.8,9.436,49.494,43.057c3.112,29.265-21.9,42.089-25.921,45.128-3.716,2.578-25.366,13.6-55.4,5.144-30.771-10.851-39.209-13.127-64.013-13.127-19.824.87-33.418,3.308-49.5,9.209C44.623,336.5,32.348,346.2,29.335,351.908c0,0,11.472-6.115,18.145-8.019S71.005,338,79.887,338.011s34.2-1.114,58.8,10.326c27.477,13.4,45.48,12.906,52.12,12.863,9.752.023,45.541-1.1,69.442-19.343,13.629-8.667,24.832-25.913,24.094-40.7s-13.7-37.186-34.318-46.979S203.508,241.464,203.508,241.464Z" transform="translate(0 3.019)" fill="#8ad1f5"/>
    <path id="パス_35" data-name="パス 35" d="M38.428,334.757c5.158-2.343,34.691-10.781,53.911-10.313s31.758,7.521,44.475,12.9,23.182,10.72,44.6,14.288c18.025,1.639,51.1-4.458,64.224-12.543s36.143-28.8,42.66-38.087c0,5.083-10.054,30.172-22.97,43.6-16.585,11.6-32.261,16.084-44.033,18.751-20.814,3.1-45.66,1.572-64.312-1.595-16.032-2.836-51.159-23.193-63.278-26.48C76.616,330.154,38.428,334.757,38.428,334.757Z" transform="translate(3.041 22.933)" fill="#38b8ef"/>
    <path id="パス_36" data-name="パス 36" d="M36.935,331.884c7.474-1.745,28.28-4.091,42.69-1.745,10.931,1.745,20.874,6.516,32.226,12.77,13.022,6.662,23.253,12.725,44.363,17.16,17.868,2.945,45.5,3.366,64.871,0,11.268-2,38.922-13.393,45.2-18.835-2.511,6.279-30.134,26.785-37.249,28.041s-34.319,4.6-45.2,4.186-34.764-3.219-44.323-7.146c-14.562-5.649-44.065-21.861-56.122-25.5C75.021,338.3,50.747,331.884,36.935,331.884Z" transform="translate(2.542 32.348)" fill="#0092e5"/>
    <path id="パス_37" data-name="パス 37" d="M102.766,235.033s5.212-1.943,6.361-2.473c1.591-.442,6.008.442,6.714.618s44.085,7.509,44.085,7.509a8.69,8.69,0,0,0,4.063-.706c1.591-.883,12.457-7.544,12.457-7.544h4.859l-6.1,10.106s2.3.618,2.12,1.589-2.562,1.325-2.562,1.325-22.781.706-25.356.354c-2.987.013-20.76-2.826-25.177-3.534s-17.846-3.975-19.525-4.859S102.06,236.005,102.766,235.033Z" transform="translate(24.483)" fill="#65c4f2"/>
    <path id="パス_38" data-name="パス 38" d="M100.656,358.668" transform="translate(23.855 42.22)" fill="#0092e5"/>
  </g>
</svg>
