<svg xmlns="http://www.w3.org/2000/svg" width="116" height="116" viewBox="0 0 116 116">
  <g id="グループ_62" data-name="グループ 62" transform="translate(-2147 -1737)">
    <g id="楕円形_1" data-name="楕円形 1" transform="translate(2147 1737)" fill="#fff" stroke="#707070" stroke-width="1">
      <circle cx="58" cy="58" r="58" stroke="none"/>
      <circle cx="58" cy="58" r="57.5" fill="none"/>
    </g>
    <path id="list-order" d="M23.333,7.389H52.222a2.889,2.889,0,1,1,0,5.778H23.333a2.889,2.889,0,0,1,0-5.778Zm0,20.222H52.222a2.889,2.889,0,1,1,0,5.778H23.333a2.889,2.889,0,1,1,0-5.778Zm0,20.222H52.222a2.889,2.889,0,1,1,0,5.778H23.333a2.889,2.889,0,0,1,0-5.778ZM7.444,7.389a1.444,1.444,0,1,1,0-2.889h2.889a1.43,1.43,0,0,1,1.444,1.444v8.667a1.444,1.444,0,0,1-2.889,0V7.431Zm0,17.333h5.778a1.43,1.43,0,0,1,1.444,1.444v1.444L9.756,33.389h3.467a1.444,1.444,0,1,1,0,2.889H7.444A1.43,1.43,0,0,1,6,34.833V33.389l4.911-5.778H7.444A1.43,1.43,0,0,1,6,26.167,1.394,1.394,0,0,1,7.444,24.722ZM13.222,56.5H7.444a1.444,1.444,0,1,1,0-2.889h4.333V52.167H7.444a1.444,1.444,0,1,1,0-2.889h4.333V47.833H7.444a1.444,1.444,0,1,1,0-2.889h5.778a1.444,1.444,0,0,1,1.444,1.444v8.667A1.444,1.444,0,0,1,13.222,56.5Z" transform="translate(2174 1764.5)" fill-rule="evenodd"/>
  </g>
</svg>
