<svg xmlns="http://www.w3.org/2000/svg" width="20.25" height="20.25" viewBox="0 0 20.25 20.25">
  <g id="plus" transform="translate(-7.875 -7.875)">
    <path id="パス_86" data-name="パス 86" d="M18,7.875A1.125,1.125,0,0,1,19.125,9v9A1.125,1.125,0,0,1,18,19.125H9a1.125,1.125,0,0,1,0-2.25h7.875V9A1.125,1.125,0,0,1,18,7.875Z" fill-rule="evenodd"/>
    <path id="パス_87" data-name="パス 87" d="M16.875,18A1.125,1.125,0,0,1,18,16.875h9a1.125,1.125,0,0,1,0,2.25H19.125V27a1.125,1.125,0,0,1-2.25,0Z" fill-rule="evenodd"/>
  </g>
</svg>
